<svg width="741" height="351" viewBox="0 0 741 351" fill="none" xmlns="http://www.w3.org/2000/svg">
<path d="M255.744 76.536C236.928 76.536 227.52 86.616 227.52 106.776V128.664H275.616V141.048H227.808V279H213.408V141.048H185.76V128.664H213.408V105.624C213.408 92.952 217.056 82.872 224.352 75.384C231.648 67.896 241.92 64.152 255.168 64.152C260.928 64.152 266.4 65.016 271.584 66.744C276.96 68.28 281.376 70.68 284.832 73.944L279.072 84.888C272.928 79.32 265.152 76.536 255.744 76.536ZM350.244 76.536C331.428 76.536 322.02 86.616 322.02 106.776V128.664H370.116V141.048H322.308V279H307.908V141.048H280.26V128.664H307.908V105.624C307.908 92.952 311.556 82.872 318.852 75.384C326.148 67.896 336.42 64.152 349.668 64.152C355.428 64.152 360.9 65.016 366.084 66.744C371.46 68.28 375.876 70.68 379.332 73.944L373.572 84.888C367.428 79.32 359.652 76.536 350.244 76.536ZM422.532 128.664H436.932V279H422.532V128.664ZM429.732 92.088C426.468 92.088 423.684 91.032 421.38 88.92C419.076 86.616 417.924 83.832 417.924 80.568C417.924 77.304 419.076 74.52 421.38 72.216C423.684 69.912 426.468 68.76 429.732 68.76C432.996 68.76 435.78 69.912 438.084 72.216C440.388 74.328 441.54 77.016 441.54 80.28C441.54 83.544 440.388 86.328 438.084 88.632C435.78 90.936 432.996 92.088 429.732 92.088ZM557.3 280.152C542.708 280.152 529.652 276.888 518.132 270.36C506.612 263.832 497.588 254.808 491.06 243.288C484.532 231.576 481.268 218.424 481.268 203.832C481.268 189.048 484.532 175.896 491.06 164.376C497.588 152.664 506.612 143.64 518.132 137.304C529.652 130.776 542.708 127.512 557.3 127.512C569.396 127.512 580.34 129.912 590.132 134.712C600.116 139.32 608.18 146.136 614.324 155.16L603.668 162.936C598.292 155.448 591.572 149.88 583.508 146.232C575.636 142.392 566.9 140.472 557.3 140.472C545.588 140.472 535.028 143.16 525.62 148.536C516.404 153.72 509.108 161.112 503.732 170.712C498.548 180.312 495.956 191.352 495.956 203.832C495.956 216.312 498.548 227.352 503.732 236.952C509.108 246.552 516.404 254.04 525.62 259.416C535.028 264.6 545.588 267.192 557.3 267.192C566.9 267.192 575.636 265.368 583.508 261.72C591.572 257.88 598.292 252.216 603.668 244.728L614.324 252.504C608.18 261.528 600.116 268.44 590.132 273.24C580.34 277.848 569.396 280.152 557.3 280.152ZM671.258 161.496C675.866 150.552 683.066 142.2 692.858 136.44C702.65 130.488 714.554 127.512 728.57 127.512V141.624L725.114 141.336C708.41 141.336 695.354 146.616 685.946 157.176C676.538 167.544 671.834 182.04 671.834 200.664V279H657.434V128.664H671.258V161.496Z" fill="black"/>
<mask id="mask0" mask-type="alpha" maskUnits="userSpaceOnUse" x="0" y="99" width="180" height="180">
<path d="M90 99L153.64 125.36L180 189L153.64 252.64L90 279L26.3604 252.64L0 189L26.3604 125.36L90 99Z" fill="#730000"/>
</mask>
<g mask="url(#mask0)">
<rect width="290.972" height="196.921" transform="matrix(0.875239 -0.483691 0.516488 0.856294 -63.6586 154.331)" fill="#730000"/>
<g filter="url(#filter0_d)">
<rect width="111.57" height="195.304" transform="matrix(0.968647 0.248439 -0.269568 0.962981 71.672 109.506)" fill="#8E0101"/>
</g>
<g filter="url(#filter1_d)">
<rect width="109.516" height="199.109" transform="matrix(0.722398 0.691478 -0.722398 0.691478 163.592 141.023)" fill="#A80000"/>
</g>
<g filter="url(#filter2_d)">
<rect width="110.707" height="223.111" transform="matrix(0.875239 -0.483691 0.516488 0.856294 24.878 102.82)" fill="#B50000"/>
</g>
<g filter="url(#filter3_d)">
<rect width="111.528" height="195.383" transform="matrix(0.964335 -0.264683 0.286968 0.95794 81.9512 84.3951)" fill="#D40000"/>
</g>
</g>
<defs>
<filter id="filter0_d" x="-0.975586" y="99.5058" width="180.72" height="235.792" filterUnits="userSpaceOnUse" color-interpolation-filters="sRGB">
<feFlood flood-opacity="0" result="BackgroundImageFix"/>
<feColorMatrix in="SourceAlpha" type="matrix" values="0 0 0 0 0 0 0 0 0 0 0 0 0 0 0 0 0 0 127 0" result="hardAlpha"/>
<feOffset dx="-10"/>
<feGaussianBlur stdDeviation="5"/>
<feComposite in2="hardAlpha" operator="out"/>
<feColorMatrix type="matrix" values="0 0 0 0 0 0 0 0 0 0 0 0 0 0 0 0 0 0 0.25 0"/>
<feBlend mode="normal" in2="BackgroundImageFix" result="effect1_dropShadow"/>
<feBlend mode="normal" in="SourceGraphic" in2="effect1_dropShadow" result="shape"/>
</filter>
<filter id="filter1_d" x="-0.243835" y="131.023" width="242.95" height="233.408" filterUnits="userSpaceOnUse" color-interpolation-filters="sRGB">
<feFlood flood-opacity="0" result="BackgroundImageFix"/>
<feColorMatrix in="SourceAlpha" type="matrix" values="0 0 0 0 0 0 0 0 0 0 0 0 0 0 0 0 0 0 127 0" result="hardAlpha"/>
<feOffset dx="-10"/>
<feGaussianBlur stdDeviation="5"/>
<feComposite in2="hardAlpha" operator="out"/>
<feColorMatrix type="matrix" values="0 0 0 0 0 0 0 0 0 0 0 0 0 0 0 0 0 0 0.25 0"/>
<feBlend mode="normal" in2="BackgroundImageFix" result="effect1_dropShadow"/>
<feBlend mode="normal" in="SourceGraphic" in2="effect1_dropShadow" result="shape"/>
</filter>
<filter id="filter2_d" x="4.87799" y="39.2724" width="232.129" height="264.597" filterUnits="userSpaceOnUse" color-interpolation-filters="sRGB">
<feFlood flood-opacity="0" result="BackgroundImageFix"/>
<feColorMatrix in="SourceAlpha" type="matrix" values="0 0 0 0 0 0 0 0 0 0 0 0 0 0 0 0 0 0 127 0" result="hardAlpha"/>
<feOffset dx="-10"/>
<feGaussianBlur stdDeviation="5"/>
<feComposite in2="hardAlpha" operator="out"/>
<feColorMatrix type="matrix" values="0 0 0 0 0 0 0 0 0 0 0 0 0 0 0 0 0 0 0.25 0"/>
<feBlend mode="normal" in2="BackgroundImageFix" result="effect1_dropShadow"/>
<feBlend mode="normal" in="SourceGraphic" in2="effect1_dropShadow" result="shape"/>
</filter>
<filter id="filter3_d" x="61.9512" y="44.8755" width="183.619" height="236.685" filterUnits="userSpaceOnUse" color-interpolation-filters="sRGB">
<feFlood flood-opacity="0" result="BackgroundImageFix"/>
<feColorMatrix in="SourceAlpha" type="matrix" values="0 0 0 0 0 0 0 0 0 0 0 0 0 0 0 0 0 0 127 0" result="hardAlpha"/>
<feOffset dx="-10"/>
<feGaussianBlur stdDeviation="5"/>
<feComposite in2="hardAlpha" operator="out"/>
<feColorMatrix type="matrix" values="0 0 0 0 0 0 0 0 0 0 0 0 0 0 0 0 0 0 0.25 0"/>
<feBlend mode="normal" in2="BackgroundImageFix" result="effect1_dropShadow"/>
<feBlend mode="normal" in="SourceGraphic" in2="effect1_dropShadow" result="shape"/>
</filter>
</defs>
</svg>
